<?xml version="1.0" encoding="UTF-8" standalone="no"?>
<svg
   xmlns:dc="http://purl.org/dc/elements/1.1/"
   xmlns:cc="http://creativecommons.org/ns#"
   xmlns:rdf="http://www.w3.org/1999/02/22-rdf-syntax-ns#"
   xmlns:svg="http://www.w3.org/2000/svg"
   xmlns="http://www.w3.org/2000/svg"
   viewBox="0 0 2016 901.33331"
   height="901.33331"
   width="2016"
   xml:space="preserve"
   id="svg2"
   version="1.1"><metadata
     id="metadata8"><rdf:RDF><cc:Work
         rdf:about=""><dc:format>image/svg+xml</dc:format><dc:type
           rdf:resource="http://purl.org/dc/dcmitype/StillImage" /></cc:Work></rdf:RDF></metadata><defs
     id="defs6" /><g
     transform="matrix(1.3333333,0,0,-1.3333333,0,901.33333)"
     id="g10"><g
       transform="scale(0.1)"
       id="g12"><path
         id="path14"
         style="fill:#231f20;fill-opacity:1;fill-rule:nonzero;stroke:none"
         d="m 3883.34,3553.34 c 8.71,-6.59 18.19,-13.75 28.04,-21.21 9.86,-7.45 20.1,-15.19 30.33,-22.93 v 0 c 7.48,14.65 14.95,29.29 22.32,43.73 7.37,14.45 14.65,28.71 21.72,42.57 -14.81,5.38 -28.48,10.36 -41.32,15.04 -38.49,14.01 -69.38,25.25 -100.27,36.49 6.74,-8.67 13.48,-17.34 20.22,-26.01 -27.48,-17.16 -54.95,-34.31 -82.43,-51.47 34.73,-5.46 69.34,-11.04 101.39,-16.21" /><path
         id="path16"
         style="fill:#231f20;fill-opacity:1;fill-rule:nonzero;stroke:none"
         d="m 3776.47,3566.14 c 1.83,1.14 3.66,2.27 5.48,3.41 -0.74,0.12 -1.46,0.24 -2.2,0.36 -0.1,-0.14 -3.28,-3.77 -3.28,-3.77" /><path
         id="path18"
         style="fill:#231f20;fill-opacity:1;fill-rule:nonzero;stroke:none"
         d="m 933.473,4126.52 c -30.145,1.33 -60.711,-6.85 -91.09,-10.79 5.23,-36.62 10.457,-73.25 15.73,-110.19 28.758,15.16 54.489,28.72 79.2,41.74 18.734,9.87 36.785,19.38 54.082,28.5 14.875,7.84 29.585,15.59 43.925,23.15 7.47,3.94 15,7.91 22.43,11.82 -31.16,4.02 -62.051,9.8 -92.996,13.25 -10.414,1.16 -20.836,2.06 -31.281,2.52" /><path
         id="path20"
         style="fill:#231f20;fill-opacity:1;fill-rule:nonzero;stroke:none"
         d="m 2920.66,1916.01 c 160.6,0 281.81,-47.7 363.6,-143.07 45.72,-53.66 83.24,-133.2 112.45,-238.51 h 459.1 c -6.89,137.15 -57.02,273.74 -150.41,409.92 -169.12,242.45 -436.52,363.7 -802.24,363.7 -259.58,0 -475.61,-81.75 -648.26,-244.86 v 1302.78 h -11.04 c 41.98,9.22 86.26,18.94 132.5,29.09 -10.14,22.5 -17.42,38.65 -24.7,54.8 27.09,9.32 54.19,18.64 92.75,31.91 v 153.76 c 129.63,-1.36 41.23,-98.98 58.73,-161.22 58.46,46.38 108.86,86.37 158.39,125.66 -9.7,25.84 -19.46,51.83 -29.21,77.82 39.44,-2.69 82.34,-22.36 80.61,-36.67 -9.69,-80.62 -30.11,-159.94 -47.73,-243.75 32.06,13.05 69.14,28.14 111.6,45.42 15.27,-37.91 27.61,-68.59 39.3,-97.63 52.62,7.16 100.03,7.54 143.31,21.1 49.95,15.66 90.89,36.64 58.81,110.67 -21.66,49.98 -142.64,91.12 -32.73,168.45 -10.31,8.09 -20.63,16.19 -48.28,37.86 55.36,2.91 88.54,4.66 122.94,6.47 -6.5,-63.5 134.29,-179.79 160.36,-143.97 81.39,111.78 145.47,-50.75 233.04,31.9 -27.87,-49.65 -36.73,-65.43 -45.59,-81.21 7.86,2.05 15.62,4.43 23.29,7.07 0.17,0.05 0.32,0.13 0.49,0.18 31.02,10.7 60.69,25.55 90.06,40.21 79.41,39.67 156.69,77.87 252.91,28.2 -10.15,34.21 -20.45,68.92 -31.77,107.09 -5.42,18.26 -10.99,37.08 -17.04,57.46 55.17,-27.72 92.52,-46.48 129.86,-65.25 10.46,11.94 20.92,23.88 31.37,35.81 -39.8,13.11 -79.59,26.22 -119.39,39.33 12.87,16.07 25.75,32.14 38.63,48.2 52.49,-30.51 104.97,-61.03 158.65,-92.24 14.68,17.62 33.41,39.71 51.73,62.15 20.25,24.82 40.13,49.94 63.14,78.64 -46.51,10.72 -78.65,18.13 -110.78,25.54 1.18,8.52 2.37,17.04 3.56,25.56 23.43,5.78 46.86,11.57 75.12,18.54 -56.63,40.44 -107.29,76.63 -159.18,113.69 53.33,22.09 97.2,26.68 111.96,49.82 18.21,28.57 28.48,93.86 13.28,105.48 -31.85,24.36 -82.62,23.98 -137.43,36.43 -164.25,134.45 69.11,196.94 90.6,319.6 -31.59,-6.62 -49.26,-11.26 -67.22,-13.83 -18.1,-2.6 -36.48,-3.15 -67.34,-5.6 12.23,35.5 20.77,60.21 29.25,84.94 50.34,146.76 42.52,163 -104.26,216.68 -59.91,21.9 -69.51,94.28 -15.14,139.12 41.41,34.14 87.83,62.21 171.52,120.46 -166.19,-2.67 -139.83,75.28 -123.67,151.05 5.44,25.53 0.51,53.09 2.39,79.58 8.91,125.21 4.36,128.71 -117.89,90.52 -14.16,-4.42 -29.59,-4.8 -22.34,-3.7 -123.62,44.97 107.24,143.82 -45.07,188.52 -29.75,-79.2 -54.95,-146.25 -80.14,-213.3 -12.97,-1.87 -25.95,-3.74 -38.92,-5.61 l -40.64,134.59 c 28.55,3.35 57.1,6.71 87.18,10.24 0.25,25.49 0.45,46.2 -0.27,64.06 -3.14,77.41 -23.63,101.39 -132.9,229.33 l -0.08,-0.07 c -28.07,-22.87 -55.99,-45.74 -91.23,-74.62 35.24,-10.98 61.54,-19.17 103.32,-32.19 -99.12,-90.95 -187.61,-172.15 -304.88,-279.75 22.56,95.14 37.34,157.47 59.99,253 -80.21,-11.39 -149.04,-21.16 -210.95,-29.95 7.61,93.26 53.82,220.23 13.88,259.45 -89.04,87.41 -13.01,113.51 8.48,144.89 -36.98,92.47 -69.38,173.5 -104.7,261.81 -50.59,-30.14 -98.6,-58.75 -146.62,-87.36 -5.19,7.47 -10.39,14.93 -15.58,22.39 24.16,31.73 48.33,63.46 72.41,95.07 -27.1,21.91 -75.58,43.55 -74.84,63.35 5.28,141.74 -89.05,134.94 -188.99,132.84 -6.8,30.59 -13.84,62.27 -16.89,76.01 -103.73,-63.52 -206.4,-126.39 -309.17,-189.34 -20.17,40.72 -42.09,84.98 -65.04,131.31 -109.34,-85.26 -147.04,-75.17 -231.67,61.09 -8.63,-37.76 -15.33,-67.06 -21.72,-95.03 -42.33,25.23 -92.33,39.93 -116.57,73.33 -29.98,41.29 -38.55,98.1 -60.83,160.73 -128.96,-84.26 -241.96,-160.68 -322.73,-295.73 -99.07,127.46 -227.49,88 -306.11,-27.36 -95.317,-139.84 32.73,-251.54 138.64,-386.46 -67.69,18.26 -97.48,26.3 -137.53,37.1 9.53,-68.46 9.61,-137.77 30.79,-199.88 17.57,-51.56 63.89,-92.69 88.91,-142.73 7.08,-14.18 -10.4,-54.32 -26.69,-62.5 -15.16,-7.61 -45.94,7.83 -65.77,19.85 -20.17,12.22 -34.73,46.38 -52.84,47.22 -109.648,5.11 -134.097,57.64 -72.831,178.9 -53.731,-37.25 -80.09,-55.52 -116.641,-80.86 -13.598,36.2 -33.531,67.42 -35.332,99.67 -2.168,38.78 11.094,78.42 16.422,110.24 -114.41,0 -216.234,1.93 -317.941,-0.73 -60.325,-1.58 -127.75,-126.55 -84.325,-149 116.02,-59.98 105.715,-189.5 176.735,-287.13 -77.34,-15.36 -155.992,-31.11 -224.629,-11.61 -99.465,28.26 -96.379,39.13 -144.324,-40.81 15.871,-47.63 27.769,-83.33 39.664,-119.03 l 4.039,-3.89 c -0.524,-0.16 -1.039,-0.32 -1.563,-0.48 3.145,-5.56 6.293,-11.12 9.438,-16.68 30.695,-54.22 61.39,-108.44 92.129,-162.73 -5.11,-4.09 -10.536,-8.43 -15.961,-12.76 v 0 c -9.356,12.99 -19.637,16.73 -30.215,15.04 -17.625,-2.81 -36.086,-20.73 -52.449,-36.06 -13.09,-12.26 -24.844,-22.86 -33.766,-22.75 -4.465,0.05 -8.219,2.78 -11.078,9.32 -2.859,6.53 -4.824,16.88 -5.711,32.17 -2.055,35.47 -13.184,60.66 -25.973,84.43 -6.394,11.89 -13.203,23.42 -19.508,35.71 -3.148,6.14 -6.171,12.47 -8.953,19.13 -2.781,6.65 -5.312,13.63 -7.492,21.08 16.121,5.02 32.391,10.08 48.59,15.12 20.32,6.33 40.586,12.63 60.949,18.98 -0.109,0.19 -0.219,0.38 -0.328,0.57 -0.988,0.03 -2.176,0.14 -3.199,0.18 -24.863,1.02 -58.426,5.32 -82.68,6.1 -0.554,0.02 -1.207,0.07 -1.75,0.09 -3.961,0.1 -7.355,-0.02 -10.679,-0.16 -1.032,-0.04 -2.325,0.01 -3.282,-0.06 -3,-0.22 -5.222,-0.74 -7.402,-1.27 -0.742,-0.18 -1.852,-0.23 -2.484,-0.45 -2.489,-0.87 -4.149,-2.05 -4.747,-3.64 C 136.332,5350.84 -15.3242,5296.7 92.4219,5175.73 59.918,5152.29 34.1836,5133.73 8.44922,5115.17 5.63281,5104.73 2.81641,5094.29 0,5083.85 c 139.992,32.3 196.918,-38.12 229.727,-153.23 -38.219,-9.01 -71.325,-16.8 -99.426,-23.42 44.797,-55.23 84.551,-104.24 124.297,-153.24 10.117,-29.28 51.687,-24 85.066,-38.11 30.176,-12.76 54.391,-44.52 74.82,-72.57 6.422,-8.82 -5.457,-33.96 -13.16,-49.57 -41.234,-83.52 -103.656,-130.25 -202.523,-128.55 -22.156,0.39 -49.914,-33.55 -66.418,-57.63 C 99.8906,4360.12 73.4844,4308.54 49,4266.35 c 4.4492,0.88 29.043,5.79 52.582,10.48 44.148,-89.59 91.539,-175.6 -29.1211,-241 66.4221,-43.41 163.0311,-3.83 144.6951,55.64 -29.734,96.42 17.02,152.99 85.051,174.43 60.508,19.08 134.832,111.27 206.43,5.44 4.449,-6.57 50.886,15.27 77.789,23.88 -20.922,11.76 -41.848,23.51 -65.367,36.73 -23.52,13.22 -49.633,27.89 -80.938,45.48 23.871,23.25 46.395,45.17 68.856,67.04 22.461,21.87 44.863,43.67 68.484,66.67 v 0 h 0.004 c 0.933,-10.1 1.82,-19.69 2.668,-28.84 0.847,-9.16 1.652,-17.87 2.426,-26.19 1.543,-16.66 2.945,-31.8 4.25,-45.93 2.617,-28.25 4.859,-52.46 7.097,-76.66 86.477,-33.63 172.953,-67.26 261.371,-101.64 18.278,109.31 65.703,160.9 133.047,140.59 97.636,-29.43 113.246,-110.93 116.846,-203.69 H 979.344 c 35.326,-25.12 57.876,-41.15 80.246,-57.06 -0.43,-0.22 -0.86,-0.45 -1.29,-0.68 -0.18,-0.09 -0.36,-0.19 -0.55,-0.29 0.66,-0.08 1.32,-0.19 1.98,-0.27 v 0 c -0.07,-0.13 -0.13,-0.26 -0.2,-0.38 -21.91,-41.71 -43.82,-83.4 -65.733,-125.11 49.973,-23.69 99.963,-47.36 188.143,-89.15 -83.35,-37.63 -145.48,-65.68 -208.51,-94.13 19.785,-26.82 47.52,-64.43 85.24,-115.57 18.06,27.12 36.89,55.41 54.99,82.59 100.04,-131.91 180.57,116.04 260.39,15.95 7.81,47.83 14.75,90.31 21.61,132.34 35.3,-3.06 75.84,-12.97 79.08,-5.88 47.61,104.44 103,34.12 140.14,0.23 50.82,-46.37 90.84,-105.75 130.28,-163.12 56.78,-82.59 115.55,-165.09 159.75,-254.41 16.38,-33.1 11.72,-110.47 1.33,-127.87 H 1795.79 V 1829.16 c 0,-106.35 -9.8,-181.87 -29.37,-226.55 -32.67,-75.56 -99.91,-113.32 -201.62,-113.32 -102.71,0 -169.67,34.54 -200.96,103.62 -31.28,69.04 -48.77,188.55 -52.48,358.47 v 50.68 H 877.582 v -50.68 c 0,-258.36 47.629,-462.33 142.828,-611.88 95.23,-149.58 282.26,-224.34 561.16,-224.34 133.62,0 247.28,21.47 341.41,63.91 -0.13,-9.77 -0.49,-19.34 -0.49,-29.23 0,-354.766 89.45,-634.012 268.37,-837.707 C 2369.79,109.41 2615.57,8.05078 2928.21,8.05078 c 252.64,0 459.83,75.00002 621.54,225.06622 161.71,150.031 262.24,344.824 301.59,584.336 h -456.13 c -30.13,-113.277 -68.07,-198.254 -113.72,-254.894 -82.66,-105.344 -202.72,-158 -360.17,-158 -153.61,0 -280.18,61.351 -379.85,184.086 -99.63,122.699 -149.44,307.308 -149.44,553.745 0,246.44 47.22,436.97 141.61,571.66 94.43,134.65 223.44,201.96 387.02,201.96 z m 898.41,2022.15 c 2.2,-31.54 3.89,-55.75 6.11,-87.67 0.75,-10.64 1.55,-22.13 2.45,-35.04 -17.42,10.14 -34.49,20.08 -51.29,29.87 -50.41,29.37 -98.48,57.37 -146.55,85.37 -1.85,7.06 -3.7,14.12 -5.56,21.18 65.76,-4.63 131.51,-9.25 194.84,-13.71 z m -132.29,1083.01 c -8.77,15.37 -19.49,29.53 -25.23,45.48 -6.02,16.72 -7.26,35.15 -10.6,52.84 12.56,3.21 25.11,6.42 37.66,9.64 h 0.01 c 2.05,-10.71 5.01,-21.66 8.13,-32.65 9.37,-32.98 20.23,-66.34 12.72,-94.87 -11.58,-44.02 -51.92,-80.47 -84.98,-127.63 -27.83,27.28 -46.58,46.88 -54.7,62.52 -17.87,34.39 15.67,49.54 116.99,84.67 z M 3583.7,4240.2 c 47.12,-29.68 82.63,-52.06 117.57,-74.06 11.65,-7.34 23.23,-14.64 35.16,-22.16 -63.31,-22.11 -115.43,-40.31 -182.99,-63.9 v 0 c 9.4,49.74 18.92,100.1 30.26,160.12 z m -217.99,-137.32 c 16,25.95 32.27,52.34 50.95,82.64 v 0 c 6.2,-3.7 16.36,-9.78 28.5,-17.04 6.07,-3.64 12.63,-7.56 19.44,-11.64 6.81,-4.07 13.87,-8.29 20.94,-12.52 -7.95,-8.6 -17.18,-16.61 -25.59,-25 -8.41,-8.39 -16,-17.16 -20.66,-27.28 -2.45,-5.29 -4.18,-10.91 -5.49,-16.83 -3.91,-17.76 -3.89,-38.23 -7.1,-60.78 v 0 c -39.58,3.01 -74.82,5.69 -110.34,8.39 17.61,28.57 33.35,54.1 49.35,80.06 z m -115.55,978.6 c 9.1,-4.89 18.2,-9.78 27.3,-14.66 -7.55,-56.53 -15.1,-113.06 -23.23,-173.85 -35.35,18.61 -68.66,36.14 -121.98,64.21 43.38,45.72 80.64,85.01 117.91,124.3 z m -312.81,-384.8 c 2.94,2.81 6.83,4.62 11.54,5.62 32.93,6.97 105.88,-26.25 173.62,-40.53 -0.77,-1.05 1.39,1.9 5.88,8.02 7.49,10.21 21.44,29.22 39.07,53.23 v 0 0 c 32.53,-92.71 0.54,-171.11 -62.24,-194.05 -8.97,-3.28 -18.57,-5.42 -28.69,-6.32 v 57.8 c -6.22,-2.97 -12.43,-5.94 -18.78,-8.97 -19.05,-9.1 -39.32,-18.79 -64.44,-30.79 v 0 h -0.01 c 4.15,16.48 -2.99,29.01 -14.59,39.92 -11.6,10.89 -27.67,20.15 -41.41,30.08 -10.3,7.45 -19.29,15.26 -24.09,24.43 -1.6,3.06 -2.74,6.26 -3.3,9.65 -2.26,13.57 4.62,30.1 27.44,51.91 z m 38.49,-872.72 c 23.3,13.52 47.93,27.81 75.21,43.64 v 0 0 c -5,-30.9 -9.05,-55.87 -13.14,-81.1 -3.07,-18.93 -6.16,-38.01 -9.7,-59.86 -1.18,-7.28 -2.41,-14.87 -3.7,-22.87 h -0.01 v 0 c -11.17,7.83 -21.78,15.25 -31.96,22.38 -30.55,21.39 -57.26,40.09 -83.97,58.79 21.98,12.75 43.97,25.5 67.27,39.02 z M 805.379,5620.88 c 12.047,18.68 24.234,37.58 37.5,58.15 8.324,-6.05 16.266,-11.83 23.91,-17.39 22.93,-16.67 43.18,-31.39 63.149,-45.91 -25.168,-49.69 -47.563,-93.9 -75.215,-148.49 -13.297,14.96 -27.102,30.49 -41.43,46.61 -14.332,16.11 -29.188,32.83 -44.594,50.16 12.719,19.72 24.629,38.19 36.68,56.87 z M 623.602,4714.35 c -3.493,-6.06 -8.051,-12.57 -12.821,-19.17 -7.156,-9.9 -14.781,-19.99 -19.996,-29.07 -19.922,13.85 -48.5,24.97 -64.793,39.97 -5.433,4.99 -9.5,10.42 -11.426,16.53 -1.597,5.05 -2.847,10.22 -3.812,15.47 -0.965,5.25 -1.652,10.59 -2.113,16 -2.774,32.46 2.453,67.45 2.453,100.79 -10.457,4.62 -20.914,9.24 -31.375,13.86 -17.953,-34.3 -35.903,-68.6 -53.856,-102.89 -9.445,-2.83 -18.894,-5.65 -28.34,-8.48 -4.117,35.28 -19.937,76.18 -13.867,106.56 0.867,4.34 2.18,8.46 4.039,12.33 14.938,31.04 62.758,55.47 99.899,62.19 v 0 c 15.234,2.76 41.176,-47.82 60.586,-75.31 7.218,-10.22 14.718,-20.36 22.199,-30.51 22.449,-30.48 44.75,-61.16 58.848,-95.15 2.453,-5.91 -0.387,-14.02 -5.625,-23.12 z m 83.945,695.4 c 47.996,12 104.562,26.15 162.461,40.63 1.332,-11.41 2.844,-22.27 4.543,-32.58 5.097,-30.95 11.879,-56.98 20.512,-78.34 2.878,-7.12 5.964,-13.71 9.257,-19.8 19.778,-36.5 47.203,-54.57 83.637,-55.93 30.363,-1.14 66.983,9.32 110.653,30.34 3.78,-10.8 6.97,-20.4 9.5,-28.94 5.07,-17.07 7.49,-29.92 6.68,-39.74 -0.4,-4.91 -1.61,-9.06 -3.7,-12.61 -8.38,-14.2 -30.86,-18.71 -72.17,-23.2 -38.955,-4.23 -77.268,-14.41 -111.357,-23.12 -11.364,-2.9 -22.254,-5.64 -32.547,-7.94 -79.2,81.81 -154.782,159.89 -232.34,240.01 13.828,3.46 28.871,7.22 44.871,11.22 z m 331.773,-589.79 c -32.22,9.29 -64.445,18.57 -100.449,28.94 -36.008,10.37 -75.797,21.83 -123.144,35.46 35.375,31.14 70.531,67.82 89.074,82.02 6.183,4.73 10.515,6.96 12.398,5.66 25.403,-17.62 48.719,-38.24 71.34,-59.86 22.611,-21.63 44.531,-44.27 67.121,-65.94 -5.45,-8.76 -10.89,-17.52 -16.34,-26.28 z m 333.7,73.65 c -17.59,-15.78 -36.07,-28.39 -56.47,-34.07 -15.38,-4.29 -31.52,-5.81 -48.33,-5.54 -33.6,0.54 -69.84,8.24 -107.82,15.32 -18.99,3.54 -38.4,6.93 -58.15,9.19 5.23,10.48 9.2,20.13 12.05,29.07 8.58,26.8 7.15,47.1 -0.55,63.58 -2.57,5.49 -5.83,10.56 -9.65,15.31 -42.03,52.2 -151.53,65.11 -144.014,170.95 l 0.004,-0.01 v 0.01 c 77.75,-58.33 145.43,-109.11 210.43,-157.87 1.76,5.72 3.73,12.09 5.89,19.12 2.16,7.02 4.52,14.69 7.08,22.97 79.41,-80.82 121.28,-108.08 169.36,-88.06 8.74,3.64 17.69,8.85 27.1,15.58 4.71,3.36 9.53,7.1 14.51,11.23 9.95,8.24 20.49,18 31.9,29.22 h 0.01 c 10.68,-9.3 21.36,-18.59 32.04,-27.89 -29.22,-26.65 -56.08,-61.8 -85.39,-88.11 z m 383.75,-891.28 c -3.41,-12.44 -6.92,-25.24 -10.54,-38.45 -18.81,6.97 -35.07,15.21 -49.18,24.53 -98.74,65.24 -91.92,183.27 -116.38,284.28 v 0 0 c 67.79,-55.72 134.36,-110.42 204.22,-167.82 -8.59,-31.31 -17.89,-65.25 -28.12,-102.54 z m 673.96,148.39 c 4.35,3.84 8.64,7.17 12.87,10.01 12.7,8.5 24.96,12.49 37.37,12.11 28.96,-0.87 58.76,-25.54 97.03,-72.32 -53.02,-11.01 -106.91,-22.2 -163.38,-33.93 -18.82,-3.91 -37.93,-7.87 -57.39,-11.91 16.88,27.03 32.13,49.29 46.32,66.92 9.47,11.76 18.47,21.45 27.18,29.12 z m -177.29,277.58 c 12.61,36.38 26.33,75.94 44.47,128.26 v 0 0 c 9.44,-8.72 18.04,-16.67 26.02,-24.03 23.93,-22.1 42.23,-39 60.52,-55.9 -36.8,-34.88 -73.6,-69.77 -110.4,-104.65 -10.99,6.89 -21.98,13.78 -32.97,20.66 4.08,11.78 8.16,23.54 12.36,35.66 z m -206.66,-965.64 c 58,55.98 102.61,99.03 157.47,151.98 -3.87,39.01 -17.94,97.22 -0.71,145.55 10.33,28.99 31.93,54.44 73.76,70.04 65.02,24.26 150.61,-6.61 226.94,-12.68 0.88,-20.98 1.74,-41.95 2.62,-62.92 -59.62,-23.79 -121.38,-43.5 -177.96,-73.1 -17.57,-9.19 -38.33,-24.87 -51.99,-41.78 -8.2,-10.15 -13.83,-20.75 -14.7,-30.66 -8.98,-103.06 -45.6,-155.86 -154.07,-168.68 -25.03,-2.95 -53.88,-3.78 -87.11,-2.6 8.9,8.59 17.46,16.85 25.75,24.85 z m 125.5,-2086.16 -25.85,35.51 c -23.24,-27.75 -65.85,-44.55 -111.05,-44.55 -116.89,0 -141.42,81.37 -141.42,133.02 0,53.59 35.51,97.52 92.99,133.03 l -16.15,23.9 c -25.84,38.07 -31,56.81 -31,83.28 0,60.07 48.43,96.86 117.54,96.86 78.77,0 114.94,-42.61 114.94,-96.2 0,-45.87 -25.85,-81.38 -80.09,-119.48 l 69.11,-93.6 c 9.7,19.98 16.14,50.99 16.14,69.73 h 80.06 c 0,-49.75 -19.37,-96.86 -47.12,-136.25 l 60.7,-85.25 h -98.8" /><path
         id="path22"
         style="fill:#231f20;fill-opacity:1;fill-rule:nonzero;stroke:none"
         d="m 2050.23,1677.43 16.77,14.21 c 20.68,16.76 29.07,34.22 29.07,50.36 0,25.19 -16.77,38.73 -40.67,38.73 -21.97,0 -39.39,-13.54 -39.39,-37.44 0,-12.27 7.72,-29.73 23.24,-50.37 l 10.98,-15.49" /><path
         id="path24"
         style="fill:#231f20;fill-opacity:1;fill-rule:nonzero;stroke:none"
         d="m 1983.07,1500.48 c 0,-29.06 22.62,-60.69 64.57,-60.69 25.18,0 44.55,9.67 60.07,29.07 l -77.5,109.77 c -34.88,-27.12 -47.14,-49.74 -47.14,-78.15" /><path
         id="path26"
         style="fill:#231f20;fill-opacity:1;fill-rule:nonzero;stroke:none"
         d="m 3023.29,3205.58 h -291.1 l -150.14,-724.25 h 126.79 l 57.82,277.93 h 217.1 c 262.69,0 265.74,221.13 265.74,225.19 0,67.96 0,221.13 -226.21,221.13 z m -43.62,-342.85 h -191.71 l 49.72,239.38 h 164.34 c 103.44,0 120.69,-58.82 120.69,-99.41 0,-63.9 -29.41,-139.97 -143.04,-139.97" /><path
         id="path28"
         style="fill:#231f20;fill-opacity:1;fill-rule:nonzero;stroke:none"
         d="m 3406.7,2713.62 c 22.31,105.48 73.02,196.78 192.75,196.78 13.16,0 27.36,-2.03 40.56,-4.06 l 24.35,110.56 c -18.25,3.05 -37.55,3.05 -55.81,3.05 -71.01,0 -135.93,-60.86 -167.35,-118.68 l -2.04,2.03 21.3,102.45 h -109.53 l -108.54,-524.42 h 115.64 l 48.67,232.29" /><path
         id="path30"
         style="fill:#231f20;fill-opacity:1;fill-rule:nonzero;stroke:none"
         d="m 3941.22,3019.95 c -180.55,0 -299.24,-151.14 -299.24,-323.58 0,-146.07 85.22,-229.24 229.27,-229.24 186.64,0 299.23,144.03 299.23,327.64 0,146.06 -85.22,225.18 -229.26,225.18 z m -62.88,-461.54 c -84.17,0 -120.72,57.83 -120.72,134.93 0,104.47 57.82,235.32 176.5,235.32 84.21,0 120.72,-57.82 120.72,-134.92 0,-106.5 -57.81,-235.33 -176.5,-235.33" /><path
         id="path32"
         style="fill:#231f20;fill-opacity:1;fill-rule:nonzero;stroke:none"
         d="m 4596.47,3019.95 c -64.92,0 -128.8,-30.43 -165.34,-83.17 l -2.02,2.02 15.21,66.95 h -114.63 l -149.1,-718.17 h 115.64 l 56.81,274.91 h 2.01 c 32.46,-74.06 95.37,-95.36 171.44,-95.36 181.56,0 268.79,175.47 268.79,335.74 0,124.78 -67.94,217.08 -198.81,217.08 z m -96.34,-461.54 c -82.17,0 -115.67,59.86 -115.67,134.93 0,109.53 54.8,235.32 179.55,235.32 80.12,0 115.63,-60.87 115.63,-136.95 0,-109.55 -54.76,-233.3 -179.51,-233.3" /><path
         id="path34"
         style="fill:#231f20;fill-opacity:1;fill-rule:nonzero;stroke:none"
         d="m 5090.42,2467.13 c 124.78,0 216.06,54.76 252.58,176.5 h -115.64 c -16.21,-54.77 -63.88,-85.22 -125.78,-85.22 -87.23,0 -124.75,49.7 -124.75,121.73 0,10.15 0,21.3 2.01,33.48 h 390.55 c 3.05,17.23 6.06,39.56 6.06,64.92 0,102.45 -36.51,241.41 -223.12,241.41 -187.69,0 -291.13,-162.29 -291.13,-323.58 0,-142.02 96.37,-229.24 229.22,-229.24 z m 58.86,461.53 c 68.97,0 110.54,-44.64 110.54,-106.51 0,-10.15 0,-20.28 -1,-32.46 h -268.79 c 23.31,81.15 73.02,138.97 159.25,138.97" /><path
         id="path36"
         style="fill:#231f20;fill-opacity:1;fill-rule:nonzero;stroke:none"
         d="m 5567.13,2713.62 c 22.31,105.48 73.02,196.78 192.75,196.78 13.16,0 27.36,-2.03 40.56,-4.06 l 24.35,110.56 c -18.25,3.05 -37.55,3.05 -55.81,3.05 -71.01,0 -135.93,-60.86 -167.35,-118.68 l -2.04,2.03 21.3,102.45 h -109.53 l -108.54,-524.42 h 115.64 l 48.67,232.29" /><path
         id="path38"
         style="fill:#231f20;fill-opacity:1;fill-rule:nonzero;stroke:none"
         d="M 5900.86,2919.53 5841,2632.47 c -2,-9.13 -7.1,-38.56 -7.1,-58.82 0,-48.71 21.31,-97.42 104.48,-97.42 29.41,0 65.92,4.09 95.37,11.16 l 19.26,85.22 c -22.31,-5.06 -44.65,-5.06 -61.87,-5.06 -34.5,0 -41.6,16.21 -41.6,38.52 0,12.2 5.09,34.5 10.15,56.83 l 53.76,256.63 h 104.48 l 18.26,86.22 h -104.48 l 32.46,157.22 h -112.59 l -32.46,-157.22 h -91.32 l -18.25,-86.22 h 91.31" /><path
         id="path40"
         style="fill:#231f20;fill-opacity:1;fill-rule:nonzero;stroke:none"
         d="m 6204.12,2414.36 c -14.21,-33.46 -40.57,-44.61 -75.07,-44.61 -14.2,0 -30.42,4.05 -44.62,8.1 l -21.3,-96.37 c 23.31,-5.06 46.66,-8.1 69.97,-8.1 129.84,0 169.4,92.31 224.2,191.7 l 300.24,540.67 H 6533.77 L 6336,2622.32 h -2.04 l -54.77,383.43 h -121.73 l 92.32,-507.17 -45.66,-84.22" /><path
         id="path42"
         style="fill:#231f20;fill-opacity:1;fill-rule:nonzero;stroke:none"
         d="m 7153.54,3061.54 h 2.01 l 91.28,-580.21 h 99.42 l 327.64,580.21 h 2.02 l -125.75,-580.21 h 121.69 l 149.13,724.25 h -179.54 l -314.45,-551.81 h -2.04 l -79.12,551.81 h -174.46 l -150.14,-724.25 h 121.73 l 110.58,580.21" /><path
         id="path44"
         style="fill:#231f20;fill-opacity:1;fill-rule:nonzero;stroke:none"
         d="m 8328.07,2564.5 c -13.16,-1 -27.37,-6.09 -40.57,-6.09 -18.25,0 -24.35,9.14 -24.35,23.34 0,14.21 6.1,32.46 10.15,51.72 l 38.56,185.63 c 7.1,32.46 10.11,56.81 10.11,79.12 0,37.54 -6.06,121.73 -196.76,121.73 -124.78,0 -222.16,-43.63 -247.52,-173.47 h 109.58 c 16.21,64.92 67.96,82.18 130.84,82.18 47.66,0 88.23,-13.19 88.23,-62.9 0,-39.56 -19.26,-65.92 -60.83,-68.97 -37.55,-3.05 -77.12,-7.1 -115.63,-9.13 -115.68,-7.1 -220.15,-51.73 -220.15,-180.55 0,-92.29 77.11,-139.98 163.33,-139.98 63.88,0 130.84,21.3 176.5,66.96 2.01,-40.61 30.42,-66.96 69.98,-66.96 30.45,0 60.86,7.1 90.27,14.2 z m -310.39,-6.09 c -42.61,0 -92.29,16.24 -92.29,66.96 0,87.22 118.65,86.22 183.57,91.28 25.36,3.05 55.81,8.12 72.02,24.35 l 2.04,-2.03 c -15.2,-99.4 -52.75,-180.56 -165.34,-180.56" /><path
         id="path46"
         style="fill:#231f20;fill-opacity:1;fill-rule:nonzero;stroke:none"
         d="m 8635.41,3205.58 h -114.63 l -22.31,-109.55 h 114.63 l 22.31,109.55" /><path
         id="path48"
         style="fill:#231f20;fill-opacity:1;fill-rule:nonzero;stroke:none"
         d="m 8594.84,3005.75 h -115.63 l -108.53,-524.42 h 115.63 l 108.53,524.42" /><path
         id="path50"
         style="fill:#231f20;fill-opacity:1;fill-rule:nonzero;stroke:none"
         d="m 8730.78,2481.33 58.82,284.03 c 9.15,42.59 30.42,85.19 56.81,112.58 28.41,28.4 63.88,50.72 109.54,50.72 84.18,0 80.12,-57.82 80.12,-75.07 0,-14.19 -4.05,-31.44 -8.1,-48.69 l -66.93,-323.57 h 115.64 l 69.97,334.74 c 4.05,18.25 5.06,45.64 5.06,64.92 0,84.18 -47.67,138.96 -153.15,138.96 -72.02,0 -138.98,-34.48 -180.55,-92.3 l -2.05,2.03 16.25,76.07 h -108.53 l -108.54,-524.42 h 115.64" /><path
         id="path52"
         style="fill:#231f20;fill-opacity:1;fill-rule:nonzero;stroke:none"
         d="m 9260.21,2632.47 c -2.01,-9.13 -7.1,-38.56 -7.1,-58.82 0,-48.71 21.3,-97.42 104.48,-97.42 29.41,0 65.92,4.09 95.36,11.16 l 19.26,85.22 c -22.31,-5.06 -44.65,-5.06 -61.87,-5.06 -34.5,0 -41.6,16.21 -41.6,38.52 0,12.2 5.09,34.5 10.15,56.83 l 53.76,256.63 h 104.48 l 18.26,86.22 h -104.48 l 32.46,157.22 h -112.59 l -32.46,-157.22 h -91.31 l -18.26,-86.22 h 91.32 l -59.86,-287.06" /><path
         id="path54"
         style="fill:#231f20;fill-opacity:1;fill-rule:nonzero;stroke:none"
         d="m 9848.53,3019.95 c -187.66,0 -291.13,-162.29 -291.13,-323.58 0,-142.02 96.37,-229.24 229.22,-229.24 124.78,0 216.08,54.76 252.58,176.5 h -115.64 c -16.21,-54.77 -63.88,-85.22 -125.78,-85.22 -87.23,0 -124.75,49.7 -124.75,121.73 0,10.15 0,21.3 2.01,33.48 h 390.56 c 3,17.23 6.1,39.56 6.1,64.92 0,102.45 -36.6,241.41 -223.17,241.41 z m 106.49,-230.26 h -268.79 c 23.31,81.15 73.02,138.97 159.25,138.97 68.97,0 110.54,-44.64 110.54,-106.51 0,-10.15 0,-20.28 -1,-32.46" /><path
         id="path56"
         style="fill:#231f20;fill-opacity:1;fill-rule:nonzero;stroke:none"
         d="m 10273.5,2765.36 c 9.2,42.59 30.4,85.19 56.8,112.58 28.4,28.4 63.9,50.72 109.6,50.72 84.1,0 80.1,-57.82 80.1,-75.07 0,-14.19 -4.1,-31.44 -8.1,-48.69 l -66.9,-323.57 h 115.6 l 70,334.74 c 4,18.25 5,45.64 5,64.92 0,84.18 -47.6,138.96 -153.1,138.96 -72.1,0 -139,-34.48 -180.6,-92.3 l -2,2.03 16.2,76.07 h -108.5 l -108.5,-524.42 h 115.6 l 58.8,284.03" /><path
         id="path58"
         style="fill:#231f20;fill-opacity:1;fill-rule:nonzero;stroke:none"
         d="m 10847.6,2467.13 c 63.9,0 130.8,21.3 176.5,66.96 2,-40.61 30.4,-66.96 70,-66.96 30.4,0 60.8,7.1 90.2,14.2 l 18.3,83.17 c -13.2,-1 -27.4,-6.09 -40.6,-6.09 -18.2,0 -24.3,9.14 -24.3,23.34 0,14.21 6.1,32.46 10.1,51.72 l 38.6,185.63 c 7.1,32.46 10.1,56.81 10.1,79.12 0,37.54 -6.1,121.73 -196.8,121.73 -124.7,0 -222.1,-43.63 -247.5,-173.47 h 109.6 c 16.2,64.92 68,82.18 130.8,82.18 47.7,0 88.3,-13.19 88.3,-62.9 0,-39.56 -19.3,-65.92 -60.9,-68.97 -37.5,-3.05 -77.1,-7.1 -115.6,-9.13 -115.7,-7.1 -220.1,-51.73 -220.1,-180.55 0,-92.29 77.1,-139.98 163.3,-139.98 z m 135.9,249.52 c 25.3,3.05 55.8,8.12 72,24.35 l 2.1,-2.03 c -15.3,-99.4 -52.8,-180.56 -165.4,-180.56 -42.6,0 -92.3,16.24 -92.3,66.96 0,87.22 118.7,86.22 183.6,91.28" /><path
         id="path60"
         style="fill:#231f20;fill-opacity:1;fill-rule:nonzero;stroke:none"
         d="m 11419.7,2765.36 c 9.1,42.59 30.4,85.19 56.8,112.58 28.4,28.4 63.9,50.72 109.5,50.72 84.2,0 80.1,-57.82 80.1,-75.07 0,-14.19 -4,-31.44 -8.1,-48.69 l -66.9,-323.57 h 115.6 l 70,334.74 c 4.1,18.25 5.1,45.64 5.1,64.92 0,84.18 -47.7,138.96 -153.2,138.96 -72,0 -139,-34.48 -180.5,-92.3 l -2.1,2.03 16.3,76.07 h -108.6 l -108.5,-524.42 h 115.6 l 58.9,284.03" /><path
         id="path62"
         style="fill:#231f20;fill-opacity:1;fill-rule:nonzero;stroke:none"
         d="m 12064.7,2467.13 c 137,0 229.3,60.86 266.8,194.75 h -115.6 c -19.3,-62.88 -63.9,-103.47 -131.9,-103.47 -86.2,0 -116.7,58.83 -116.7,136.95 0,100.41 56.9,233.3 172.5,233.3 62.9,0 105.5,-31.44 103.5,-96.36 h 115.6 c 4.1,122.74 -92.3,187.65 -209,187.65 -186.6,0 -298.2,-152.16 -298.2,-328.66 0,-132.88 76.1,-224.16 213,-224.16" /><path
         id="path64"
         style="fill:#231f20;fill-opacity:1;fill-rule:nonzero;stroke:none"
         d="m 12642.9,2467.13 c 124.8,0 216.1,54.76 252.6,176.5 h -115.7 c -16.2,-54.77 -63.8,-85.22 -125.7,-85.22 -87.3,0 -124.8,49.7 -124.8,121.73 0,10.15 0,21.3 2,33.48 h 390.6 c 3,17.23 6,39.56 6,64.92 0,102.45 -36.5,241.41 -223.1,241.41 -187.7,0 -291.1,-162.29 -291.1,-323.58 0,-142.02 96.3,-229.24 229.2,-229.24 z m 58.9,461.53 c 68.9,0 110.5,-44.64 110.5,-106.51 0,-10.15 0,-20.28 -1,-32.46 h -268.8 c 23.3,81.15 73,138.97 159.3,138.97" /><path
         id="path66"
         style="fill:#231f20;fill-opacity:1;fill-rule:nonzero;stroke:none"
         d="m 13767.8,2590.9 h -365.2 l 127.8,614.68 h -126.7 l -150.2,-724.25 h 492 l 22.3,109.57" /><path
         id="path68"
         style="fill:#231f20;fill-opacity:1;fill-rule:nonzero;stroke:none"
         d="m 14350,2590.9 h -365.2 l 127.8,614.68 h -126.7 l -150.2,-724.25 h 492 l 22.3,109.57" /><path
         id="path70"
         style="fill:#231f20;fill-opacity:1;fill-rule:nonzero;stroke:none"
         d="m 14770.9,2567.55 c -126.8,0 -198.8,82.15 -198.8,217.06 0,161.3 85.2,334.75 257.6,334.75 103.5,0 163.4,-53.77 163.4,-155.2 h 126.7 c 5.1,166.35 -114.6,258.65 -286,258.65 -188.7,0 -388.5,-137.94 -388.5,-442.25 0,-179.54 114.6,-316.49 321.5,-316.49 151.2,0 277,87.27 318.5,269.83 h -126.7 c -14.2,-49.71 -56.9,-166.35 -187.7,-166.35" /><path
         id="path72"
         style="fill:#231f20;fill-opacity:1;fill-rule:nonzero;stroke:none"
         d="m 5500.3,2117.21 c 0,33.36 -12.82,107.11 -134.03,107.11 h -197.56 l -94.91,-457.96 h 235.38 c 141.76,0 171.9,96.85 171.9,144.32 0,48.11 -21.83,82.1 -68.63,96.23 v 1.28 c 53.87,8.97 87.85,55.15 87.85,109.02 z m -99.42,-214.23 c -7.03,-75.03 -91.7,-71.18 -118.65,-71.18 h -114.8 l 30.14,143.03 h 121.21 c 82.1,0 84.7,-50.02 82.1,-71.85 z m -71.81,129.56 h -119.96 l 26.29,126.38 h 114.18 c 65.44,0 70.56,-35.93 70.56,-54.53 0,-24.39 -11.53,-71.85 -91.07,-71.85" /><path
         id="path74"
         style="fill:#231f20;fill-opacity:1;fill-rule:nonzero;stroke:none"
         d="m 5768.46,2035.11 15.38,69.91 c -11.53,1.93 -23.72,1.93 -35.26,1.93 -44.9,0 -85.95,-38.48 -105.83,-75.03 l -1.28,1.28 13.48,64.78 h -69.29 l -68.62,-331.62 h 73.12 l 30.77,146.88 c 14.13,66.72 46.18,124.43 121.87,124.43 8.34,0 17.32,-1.28 25.66,-2.56" /><path
         id="path76"
         style="fill:#231f20;fill-opacity:1;fill-rule:nonzero;stroke:none"
         d="m 5835.18,2155.07 h 72.48 l 14.09,69.25 h -72.47 l -14.1,-69.25" /><path
         id="path78"
         style="fill:#231f20;fill-opacity:1;fill-rule:nonzero;stroke:none"
         d="m 5822.99,2097.98 -68.62,-331.62 h 73.13 l 68.62,331.62 h -73.13" /><path
         id="path80"
         style="fill:#231f20;fill-opacity:1;fill-rule:nonzero;stroke:none"
         d="m 6170.03,1970.98 -42.33,-204.62 h 73.09 l 44.28,211.66 c 2.56,11.57 3.22,28.89 3.22,41.05 0,53.24 -30.18,87.88 -96.86,87.88 -45.55,0 -87.89,-21.79 -114.18,-58.37 l -1.28,1.29 10.25,48.11 h -68.62 l -68.63,-331.62 h 73.13 l 37.2,179.61 c 5.75,26.92 19.23,53.87 35.9,71.19 17.97,17.95 40.42,32.08 69.28,32.08 53.24,0 50.68,-36.58 50.68,-47.49 0,-8.97 -2.57,-19.89 -5.13,-30.77" /><path
         id="path82"
         style="fill:#231f20;fill-opacity:1;fill-rule:nonzero;stroke:none"
         d="m 6581.16,1775.33 69.91,322.65 h -69.25 l -9.63,-55.18 h -1.29 c -17.94,46.21 -55.15,64.15 -102.64,64.15 -110.96,0 -171.23,-104.54 -171.23,-204.59 0,-83.38 46.8,-136 128.9,-136 39.14,0 71.22,17.98 93.67,50.02 l 1.28,-1.28 -7.06,-32.7 c -11.54,-53.87 -28.24,-93.02 -93.64,-93.02 -41.71,0 -73.79,13.48 -75.69,51.34 h -73.13 c 1.28,-77.63 68.62,-105.83 142.41,-105.83 104.55,0 145.6,39.11 167.39,140.44 z m -141.75,48.78 c -49.37,0 -69.25,37.2 -69.25,82.1 0,60.27 34.6,143.03 105.82,143.03 48.75,0 73.76,-30.79 73.76,-78.26 0,-67.34 -32.08,-146.87 -110.33,-146.87" /><path
         id="path84"
         style="fill:#231f20;fill-opacity:1;fill-rule:nonzero;stroke:none"
         d="m 6988.54,1756.1 189.84,341.88 h -78.25 l -125.06,-242.46 h -1.28 l -34.65,242.46 h -76.97 l 58.37,-320.71 -28.85,-53.24 c -9.01,-21.17 -25.67,-28.2 -47.46,-28.2 -9.01,0 -19.27,2.56 -28.23,5.12 l -13.48,-60.93 c 14.76,-3.22 29.52,-5.13 44.27,-5.13 82.1,0 107.11,58.34 141.75,121.21" /><path
         id="path86"
         style="fill:#231f20;fill-opacity:1;fill-rule:nonzero;stroke:none"
         d="m 7506.16,1964.58 c 0,92.35 -53.87,142.37 -144.97,142.37 -114.15,0 -189.22,-95.57 -189.22,-204.59 0,-92.39 53.91,-144.97 144.98,-144.97 118.02,0 189.21,91.07 189.21,207.19 z M 7321.42,1815.1 c -53.21,0 -76.32,36.58 -76.32,85.32 0,66.06 36.55,148.82 111.61,148.82 53.22,0 76.32,-36.58 76.32,-85.32 0,-67.35 -36.55,-148.82 -111.61,-148.82" /><path
         id="path88"
         style="fill:#231f20;fill-opacity:1;fill-rule:nonzero;stroke:none"
         d="m 7826.25,1766.36 68.66,331.62 h -73.13 l -37.21,-179.62 c -10.25,-49.36 -48.73,-103.26 -105.2,-103.26 -53.87,0 -50.65,36.58 -50.65,47.49 0,8.97 2.57,19.89 5.13,30.77 l 42.33,204.62 h -73.13 l -44.27,-211.66 c -2.56,-11.57 -3.19,-28.89 -3.19,-41.05 0,-53.24 30.14,-87.88 96.86,-87.88 45.52,0 87.85,21.82 114.15,58.37 l 1.28,-1.28 -10.25,-48.12 h 68.62" /><path
         id="path90"
         style="fill:#231f20;fill-opacity:1;fill-rule:nonzero;stroke:none"
         d="m 7973.79,2097.98 -68.63,-331.62 h 73.13 l 30.76,146.88 c 14.14,66.72 46.18,124.43 121.87,124.43 8.35,0 17.32,-1.28 25.67,-2.56 l 15.38,69.91 c -11.53,1.93 -23.73,1.93 -35.26,1.93 -44.9,0 -85.95,-38.48 -105.83,-75.03 l -1.28,1.28 13.47,64.78 h -69.28" /><path
         id="path92"
         style="fill:#231f20;fill-opacity:1;fill-rule:nonzero;stroke:none"
         d="m 8660.14,2019.07 c 0,53.24 -30.17,87.88 -96.85,87.88 -41.71,0 -84.04,-22.44 -109.06,-55.8 h -1.28 l 35.93,173.17 h -73.13 l -94.92,-457.96 h 73.13 l 37.17,179.61 c 5.78,26.92 19.26,53.87 35.92,71.19 17.98,17.95 40.43,32.08 69.29,32.08 53.24,0 50.68,-36.58 50.68,-47.49 0,-8.97 -2.57,-19.89 -5.13,-30.77 l -42.33,-204.62 h 73.09 l 44.27,211.66 c 2.56,11.57 3.22,28.89 3.22,41.05" /><path
         id="path94"
         style="fill:#231f20;fill-opacity:1;fill-rule:nonzero;stroke:none"
         d="m 8704.41,1902.36 c 0,-92.39 53.87,-144.97 144.98,-144.97 118.02,0 189.22,91.07 189.22,207.19 0,92.35 -53.87,142.37 -144.98,142.37 -114.15,0 -189.22,-95.57 -189.22,-204.59 z m 261.07,61.56 c 0,-67.35 -36.55,-148.82 -111.62,-148.82 -53.21,0 -76.32,36.58 -76.32,85.32 0,66.06 36.55,148.82 111.62,148.82 53.21,0 76.32,-36.58 76.32,-85.32" /><path
         id="path96"
         style="fill:#231f20;fill-opacity:1;fill-rule:nonzero;stroke:none"
         d="m 9486.31,1766.36 h 73.13 l 42.33,211.66 c 2.57,11.57 5.13,28.89 5.13,41.05 0,53.24 -30.79,87.88 -94.29,87.88 -44.9,0 -82.73,-25.01 -112.24,-58.99 -7.69,43.61 -43.62,58.99 -84.04,58.99 -45.52,0 -86.57,-22.44 -113.53,-57.08 l -1.28,1.28 9.63,46.83 h -69.28 l -68.62,-331.62 h 73.13 l 39.76,191.77 c 5.75,26.33 23.73,50.68 38.49,64.78 14.72,14.14 33.98,26.33 62.22,26.33 30.76,0 40.39,-18.6 40.39,-41.05 0,-19.89 -6.41,-42.99 -9.63,-59.65 l -37.83,-182.18 h 73.13 l 40.39,193.71 c 7.69,37.21 38.49,89.17 94.95,89.17 37.83,0 46.18,-23.73 45.52,-47.49 -0.62,-16.01 -5.13,-31.42 -6.41,-39.11 l -41.05,-196.28" /><path
         id="path98"
         style="fill:#231f20;fill-opacity:1;fill-rule:nonzero;stroke:none"
         d="m 9837.86,2106.95 c -118.65,0 -184.09,-102.6 -184.09,-204.59 0,-89.82 60.94,-144.97 144.98,-144.97 78.88,0 136.63,34.64 159.7,111.61 h -73.13 c -10.26,-34.64 -40.4,-53.9 -79.54,-53.9 -55.15,0 -78.88,31.45 -78.88,76.97 0,6.41 0,13.48 1.28,21.17 h 246.93 c 1.94,10.91 3.88,25.01 3.88,41.05 0,64.78 -23.11,152.66 -141.13,152.66 z m 67.34,-145.59 h -169.95 c 14.75,51.3 46.18,87.88 100.7,87.88 43.62,0 69.91,-28.23 69.91,-67.38 0,-6.41 0,-12.81 -0.66,-20.5" /><path
         id="path100"
         style="fill:#231f20;fill-opacity:1;fill-rule:nonzero;stroke:none"
         d="m 10348.5,1824.11 c -14.2,-3.23 -28.3,-3.23 -39.2,-3.23 -21.8,0 -26.3,10.26 -26.3,24.39 0,7.69 3.3,21.79 6.4,35.93 l 34,162.26 h 66.1 l 11.6,54.52 h -66.1 l 20.5,99.43 h -71.2 l -20.5,-99.43 h -57.7 l -11.6,-54.52 h 57.7 l -37.8,-181.53 c -1.3,-5.78 -4.5,-24.38 -4.5,-37.2 0,-30.8 13.5,-61.56 66.1,-61.56 18.6,0 41.7,2.56 60.3,7.03 l 12.2,53.91" /><path
         id="path102"
         style="fill:#231f20;fill-opacity:1;fill-rule:nonzero;stroke:none"
         d="m 10592.8,2106.95 c -114.1,0 -189.2,-95.57 -189.2,-204.59 0,-92.39 53.9,-144.97 145,-144.97 118,0 189.2,91.07 189.2,207.19 0,92.35 -53.9,142.37 -145,142.37 z m -39.7,-291.85 c -53.2,0 -76.3,36.58 -76.3,85.32 0,66.06 36.5,148.82 111.6,148.82 53.2,0 76.3,-36.58 76.3,-85.32 0,-67.35 -36.6,-148.82 -111.6,-148.82" /><path
         id="path104"
         style="fill:#231f20;fill-opacity:1;fill-rule:nonzero;stroke:none"
         d="m 10946.9,1766.36 h 73.2 l 94.9,457.96 h -73.1 l -95,-457.96" /><path
         id="path106"
         style="fill:#231f20;fill-opacity:1;fill-rule:nonzero;stroke:none"
         d="m 11268.9,2224.32 h -72.4 l -14.1,-69.25 h 72.4 l 14.1,69.25" /><path
         id="path108"
         style="fill:#231f20;fill-opacity:1;fill-rule:nonzero;stroke:none"
         d="m 11243.3,2097.98 h -73.1 l -68.6,-331.62 h 73.1 l 68.6,331.62" /><path
         id="path110"
         style="fill:#231f20;fill-opacity:1;fill-rule:nonzero;stroke:none"
         d="m 11476.8,2166.61 c 10.2,0 19.3,-0.66 28.2,-2.57 l 12.2,55.81 c -17.3,1.91 -34.6,4.47 -54.5,4.47 -89.8,0 -101.4,-50.02 -117.4,-126.34 h -54.5 l -10.9,-54.52 h 54.5 l -57.7,-277.1 h 73.1 l 57.7,277.1 h 64.2 l 10.9,54.52 h -64.2 c 10.3,39.77 9,68.63 58.4,68.63" /><path
         id="path112"
         style="fill:#231f20;fill-opacity:1;fill-rule:nonzero;stroke:none"
         d="m 11656.4,2106.95 c -118.7,0 -184.1,-102.6 -184.1,-204.59 0,-89.82 60.9,-144.97 145,-144.97 78.8,0 136.6,34.64 159.7,111.61 h -73.2 c -10.2,-34.64 -40.4,-53.9 -79.5,-53.9 -55.2,0 -78.9,31.45 -78.9,76.97 0,6.41 0,13.48 1.3,21.17 h 246.9 c 2,10.91 3.9,25.01 3.9,41.05 0,64.78 -23.1,152.66 -141.1,152.66 z m 67.3,-145.59 h -169.9 c 14.7,51.3 46.1,87.88 100.7,87.88 43.6,0 69.9,-28.23 69.9,-67.38 0,-6.41 0,-12.81 -0.7,-20.5" /><path
         id="path114"
         style="fill:#231f20;fill-opacity:1;fill-rule:nonzero;stroke:none"
         d="m 12322.8,1818.98 c -8.3,-0.66 -17.3,-3.88 -25.6,-3.88 -11.6,0 -15.4,5.78 -15.4,14.76 0,9 3.8,20.54 6.4,32.73 l 24.4,117.37 c 4.5,20.5 6.4,35.92 6.4,50.02 0,23.73 -3.8,76.97 -124.4,76.97 -79,0 -140.5,-27.57 -156.5,-109.67 h 69.2 c 10.3,41.05 43,51.96 82.8,51.96 30.1,0 55.8,-8.35 55.8,-39.77 0,-25.01 -12.2,-41.7 -38.5,-43.61 -23.7,-1.94 -48.8,-4.5 -73.1,-5.79 -73.2,-4.5 -139.2,-32.7 -139.2,-114.18 0,-58.37 48.7,-88.5 103.2,-88.5 40.5,0 82.8,13.47 111.6,42.33 1.3,-25.67 19.3,-42.33 44.3,-42.33 19.2,0 38.5,4.5 57.1,8.97 z m -196.2,-3.88 c -27,0 -58.4,10.29 -58.4,42.33 0,55.18 75,54.53 116.1,57.75 16,1.9 35.3,5.12 45.5,15.38 l 1.3,-1.28 c -9.6,-62.84 -33.3,-114.18 -104.5,-114.18" /><path
         id="path116"
         style="fill:#231f20;fill-opacity:1;fill-rule:nonzero;stroke:none"
         d="m 12654.5,2097.98 -9.6,-55.18 h -1.3 c -18,46.21 -55.2,64.15 -102.7,64.15 -110.9,0 -171.2,-104.54 -171.2,-204.59 0,-83.38 46.8,-136 128.9,-136 39.2,0 71.2,17.98 93.7,50.02 l 1.3,-1.28 -7.1,-32.7 c -11.5,-53.87 -28.2,-93.02 -93.6,-93.02 -41.7,0 -73.8,13.48 -75.7,51.34 h -73.2 c 1.3,-77.63 68.7,-105.83 142.5,-105.83 104.5,0 145.6,39.11 167.3,140.44 l 70,322.65 z m -142.4,-273.87 c -49.4,0 -69.3,37.2 -69.3,82.1 0,60.27 34.6,143.03 105.9,143.03 48.7,0 73.7,-30.79 73.7,-78.26 0,-67.34 -32.1,-146.87 -110.3,-146.87" /><path
         id="path118"
         style="fill:#231f20;fill-opacity:1;fill-rule:nonzero;stroke:none"
         d="m 12775.1,1997.28 h 69.3 c 10.2,41.05 42.9,51.96 82.7,51.96 30.1,0 55.8,-8.35 55.8,-39.77 0,-25.01 -12.2,-41.7 -38.5,-43.61 -23.7,-1.94 -48.7,-4.5 -73.1,-5.79 -73.1,-4.5 -139.2,-32.7 -139.2,-114.18 0,-58.37 48.8,-88.5 103.3,-88.5 40.4,0 82.7,13.47 111.6,42.33 1.3,-25.67 19.2,-42.33 44.3,-42.33 19.2,0 38.4,4.5 57,8.97 l 11.6,52.62 c -8.4,-0.66 -17.3,-3.88 -25.7,-3.88 -11.5,0 -15.4,5.78 -15.4,14.76 0,9 3.9,20.54 6.4,32.73 l 24.4,117.37 c 4.5,20.5 6.4,35.92 6.4,50.02 0,23.73 -3.8,76.97 -124.4,76.97 -78.9,0 -140.5,-27.57 -156.5,-109.67 z m 88.5,-182.18 c -27,0 -58.4,10.29 -58.4,42.33 0,55.18 75.1,54.53 116.1,57.75 16.1,1.9 35.3,5.12 45.6,15.38 l 1.2,-1.28 c -9.6,-62.84 -33.3,-114.18 -104.5,-114.18" /><path
         id="path120"
         style="fill:#231f20;fill-opacity:1;fill-rule:nonzero;stroke:none"
         d="m 13228.6,2097.98 h -73.1 l -68.6,-331.62 h 73.1 l 68.6,331.62" /><path
         id="path122"
         style="fill:#231f20;fill-opacity:1;fill-rule:nonzero;stroke:none"
         d="m 13254.3,2224.32 h -72.5 l -14.1,-69.25 h 72.5 l 14.1,69.25" /><path
         id="path124"
         style="fill:#231f20;fill-opacity:1;fill-rule:nonzero;stroke:none"
         d="m 13457,2049.24 c 53.2,0 50.7,-36.58 50.7,-47.49 0,-8.97 -2.6,-19.89 -5.2,-30.77 l -42.3,-204.62 h 73.1 l 44.3,211.66 c 2.5,11.57 3.2,28.89 3.2,41.05 0,53.24 -30.2,87.88 -96.9,87.88 -45.5,0 -87.9,-21.79 -114.1,-58.37 l -1.3,1.29 10.2,48.11 h -68.6 l -68.6,-331.62 h 73.1 l 37.2,179.61 c 5.8,26.92 19.2,53.87 35.9,71.19 18,17.95 40.4,32.08 69.3,32.08" /><path
         id="path126"
         style="fill:#231f20;fill-opacity:1;fill-rule:nonzero;stroke:none"
         d="m 4675.73,940.359 c 53.04,37.657 96.09,82.241 96.09,162.961 0,105.27 -86.08,168.32 -184.46,168.32 -129.15,0 -199.09,-94.54 -195.24,-217.51 h 104.51 c 0,56.84 20.75,123.74 85.32,123.74 46.91,0 80.72,-32.29 80.72,-83.01 -0.76,-66.13 -65.34,-99.176 -113,-131.462 -92.98,-63.011 -169.09,-116.05 -169.85,-240.55 h 395.05 v 93.773 h -254.41 c 39.22,55.324 102.23,86.086 155.27,123.738" /><path
         id="path128"
         style="fill:#231f20;fill-opacity:1;fill-rule:nonzero;stroke:none"
         d="m 5004.03,1271.64 c -106.08,0 -196.77,-67.66 -196.77,-277.48 0,-214.433 90.69,-282.086 196.77,-282.086 107.6,0 198.29,67.653 198.29,282.086 0,209.82 -90.69,277.48 -198.29,277.48 z m 0,-469.636 c -87.61,0 -87.61,131.43 -87.61,192.156 0,56.12 0,187.55 87.61,187.55 89.17,0 89.17,-131.43 89.17,-187.55 0,-60.726 0,-192.156 -89.17,-192.156" /><path
         id="path130"
         style="fill:#231f20;fill-opacity:1;fill-rule:nonzero;stroke:none"
         d="m 5248.53,1159.4 h 255.2 C 5401.5,1036.42 5335.41,881.957 5323.08,722.848 h 116.84 c 1.53,143.726 63.02,345.862 176.02,444.242 v 93.78 H 5248.53 V 1159.4" /><path
         id="path132"
         style="fill:#231f20;fill-opacity:1;fill-rule:nonzero;stroke:none"
         d="M 5692.11,722.848 H 5812.8 V 841.219 H 5692.11 V 722.848" /><path
         id="path134"
         style="fill:#231f20;fill-opacity:1;fill-rule:nonzero;stroke:none"
         d="M 6203.32,1260.87 H 6105.7 L 5872.04,947.289 v -99.941 h 227.5 v -124.5 h 103.78 v 124.5 h 71.47 v 89.929 h -71.47 z M 6099.54,937.277 h -141.41 l 139.12,186.793 h 2.29 V 937.277" /><path
         id="path136"
         style="fill:#231f20;fill-opacity:1;fill-rule:nonzero;stroke:none"
         d="m 6605.41,1011.07 v 1.52 c 49.95,13.86 75.31,59.2 75.31,109.92 0,96.09 -94.54,149.13 -180.62,149.13 -110.68,0 -182.18,-76.11 -185.99,-186.03 h 103.75 c -0.77,55.36 28.44,96.1 83,96.1 39.98,0 76.1,-26.16 76.1,-71.5 0,-61.49 -67.65,-70.7 -114.52,-66.86 v -76.87 c 53.04,0 124.5,1.559 124.5,-79.917 0,-50.75 -38.41,-84.559 -87.6,-84.559 -63.05,0 -92.25,47.664 -94.54,106.07 h -103.79 c -2.29,-123.738 79.19,-196 199.85,-196 105.31,0 199.85,63.809 199.85,176.774 0,59.965 -36.14,109.156 -95.3,122.222" /><path
         id="path138"
         style="fill:#231f20;fill-opacity:1;fill-rule:nonzero;stroke:none"
         d="m 7026.69,940.359 c 53.03,37.657 96.09,82.241 96.09,162.961 0,105.27 -86.08,168.32 -184.46,168.32 -129.15,0 -199.09,-94.54 -195.25,-217.51 h 104.52 c 0,56.84 20.78,123.74 85.32,123.74 46.9,0 80.72,-32.29 80.72,-83.01 -0.77,-66.13 -65.34,-99.176 -113,-131.462 -92.99,-63.011 -169.09,-116.05 -169.85,-240.55 h 395.05 v 93.773 h -254.41 c 39.22,55.324 102.23,86.086 155.27,123.738" /><path
         id="path140"
         style="fill:#231f20;fill-opacity:1;fill-rule:nonzero;stroke:none"
         d="m 7188.18,722.848 h 120.7 v 118.371 h -120.7 V 722.848" /><path
         id="path142"
         style="fill:#231f20;fill-opacity:1;fill-rule:nonzero;stroke:none"
         d="m 7667.83,940.359 c 53.04,37.657 96.1,82.241 96.1,162.961 0,105.27 -86.09,168.32 -184.47,168.32 -129.14,0 -199.08,-94.54 -195.24,-217.51 h 104.51 c 0,56.84 20.79,123.74 85.33,123.74 46.9,0 80.71,-32.29 80.71,-83.01 -0.76,-66.13 -65.33,-99.176 -113,-131.462 -92.98,-63.011 -169.08,-116.05 -169.84,-240.55 h 395.05 v 93.773 h -254.41 c 39.22,55.324 102.23,86.086 155.26,123.738" /><path
         id="path144"
         style="fill:#231f20;fill-opacity:1;fill-rule:nonzero;stroke:none"
         d="m 8099.16,1012.59 v 1.56 c 50.71,16.9 78.39,59.93 78.39,112.96 0,52.28 -46.11,144.53 -179.86,144.53 -87.61,0 -181.38,-49.99 -181.38,-146.81 0,-53.04 26.91,-96.1 79.15,-110.68 v -1.56 c -63.01,-15.348 -101.43,-63.777 -101.43,-132.195 0,-116.047 100.67,-168.321 204.42,-168.321 99.94,0 201.41,56.117 201.41,169.086 0,67.653 -36.9,116.844 -100.7,131.43 z m -101.47,176.81 c 67.66,0 80.72,-46.9 80.72,-74.58 0,-46.11 -36.14,-70.71 -80.72,-70.71 -43.78,0 -82.24,23.84 -82.24,70.71 0,47.66 38.46,74.58 82.24,74.58 z m 0.76,-395.087 c -52.24,0 -95.29,36.132 -95.29,91.488 0,55.324 42.29,85.289 95.29,85.289 50.75,0 92.25,-34.574 92.25,-86.086 0,-53.797 -39.97,-90.691 -92.25,-90.691" /><path
         id="path146"
         style="fill:#231f20;fill-opacity:1;fill-rule:nonzero;stroke:none"
         d="m 8267.59,1154.03 v -82.24 h 135.27 V 722.848 h 109.12 v 538.022 h -86.84 c -11.54,-82.24 -81.48,-108.36 -157.55,-106.84" /><path
         id="path148"
         style="fill:#231f20;fill-opacity:1;fill-rule:nonzero;stroke:none"
         d="m 8884.1,1084.09 c -52.27,0 -91.45,-17.67 -121.45,-59.96 l -1.52,1.55 c 3.08,59.93 23.83,163.72 102.98,163.72 37.66,0 65.34,-30.76 72.27,-66.89 h 103.75 c -12.3,94.53 -81.48,149.13 -174.46,149.13 -152.97,0 -211.38,-149.89 -211.38,-281.324 0,-136.039 43.82,-278.242 206.74,-278.242 112.24,0 188.31,86.844 188.31,196.762 0,42.266 -13.05,86.848 -41.5,119.894 -30.72,33.85 -77.63,55.36 -123.74,55.36 z m -26.12,-282.086 c -54.59,0 -86.88,49.953 -86.88,99.906 0,53.035 28.44,99.94 86.88,99.94 56.09,0 82.24,-50.748 82.24,-101.463 0,-48.43 -30,-98.383 -82.24,-98.383" /><path
         id="path150"
         style="fill:#231f20;fill-opacity:1;fill-rule:nonzero;stroke:none"
         d="m 9685.19,1134.04 c -76.11,0 -136.8,-60.72 -136.8,-136.798 0,-76.105 60.69,-137.597 136.8,-137.597 76.08,0 137.56,61.492 137.56,137.597 0,76.078 -61.48,136.798 -137.56,136.798" /><path
         id="path152"
         style="fill:#231f20;fill-opacity:1;fill-rule:nonzero;stroke:none"
         d="m 10551.6,1084.09 c -52.3,0 -91.5,-17.67 -121.5,-59.96 l -1.5,1.55 c 3.1,59.93 23.8,163.72 103,163.72 37.6,0 65.3,-30.76 72.3,-66.89 h 103.7 c -12.3,94.53 -81.5,149.13 -174.5,149.13 -152.9,0 -211.3,-149.89 -211.3,-281.324 0,-136.039 43.8,-278.242 206.7,-278.242 112.2,0 188.3,86.844 188.3,196.762 0,42.266 -13,86.848 -41.5,119.894 -30.7,33.85 -77.6,55.36 -123.7,55.36 z m -26.1,-282.086 c -54.6,0 -86.9,49.953 -86.9,99.906 0,53.035 28.4,99.94 86.9,99.94 56,0 82.2,-50.748 82.2,-101.463 0,-48.43 -30,-98.383 -82.2,-98.383" /><path
         id="path154"
         style="fill:#231f20;fill-opacity:1;fill-rule:nonzero;stroke:none"
         d="m 10946,1271.64 c -106.1,0 -196.8,-67.66 -196.8,-277.48 0,-214.433 90.7,-282.086 196.8,-282.086 107.6,0 198.3,67.653 198.3,282.086 0,209.82 -90.7,277.48 -198.3,277.48 z m 0,-469.636 c -87.6,0 -87.6,131.43 -87.6,192.156 0,56.12 0,187.55 87.6,187.55 89.1,0 89.1,-131.43 89.1,-187.55 0,-60.726 0,-192.156 -89.1,-192.156" /><path
         id="path156"
         style="fill:#231f20;fill-opacity:1;fill-rule:nonzero;stroke:none"
         d="m 11478.7,1011.07 v 1.52 c 50,13.86 75.3,59.2 75.3,109.92 0,96.09 -94.5,149.13 -180.6,149.13 -110.7,0 -182.2,-76.11 -186,-186.03 h 103.8 c -0.8,55.36 28.4,96.1 83,96.1 40,0 76.1,-26.16 76.1,-71.5 0,-61.49 -67.7,-70.7 -114.5,-66.86 v -76.87 c 53,0 124.5,1.559 124.5,-79.917 0,-50.75 -38.5,-84.559 -87.6,-84.559 -63.1,0 -92.3,47.664 -94.6,106.07 h -103.8 c -2.3,-123.738 79.2,-196 199.9,-196 105.3,0 199.8,63.809 199.8,176.774 0,59.965 -36.1,109.156 -95.3,122.222" /><path
         id="path158"
         style="fill:#231f20;fill-opacity:1;fill-rule:nonzero;stroke:none"
         d="m 11634.1,722.848 h 120.7 v 118.371 h -120.7 V 722.848" /><path
         id="path160"
         style="fill:#231f20;fill-opacity:1;fill-rule:nonzero;stroke:none"
         d="m 12006.1,1271.64 c -112.2,0 -188.3,-86.88 -188.3,-196.76 0,-42.3 13.1,-86.888 41.5,-119.935 30.8,-33.808 77.7,-55.32 123.8,-55.32 52.3,0 91.5,17.664 121.4,59.961 l 1.6,-1.559 c -3.1,-59.929 -23.9,-163.714 -103,-163.714 -37.7,0 -65.4,30.761 -72.3,66.894 h -103.7 c 12.2,-94.574 81.4,-149.133 174.4,-149.133 153,0 211.4,149.895 211.4,281.324 0,136.032 -43.8,278.242 -206.8,278.242 z m 3.1,-289.777 c -56.1,0 -82.2,50.717 -82.2,101.467 0,48.43 30,98.38 82.2,98.38 54.6,0 86.9,-49.95 86.9,-99.94 0,-53.04 -28.5,-99.907 -86.9,-99.907" /><path
         id="path162"
         style="fill:#231f20;fill-opacity:1;fill-rule:nonzero;stroke:none"
         d="m 12259.1,1159.4 h 255.2 C 12412.1,1036.42 12346,881.957 12333.7,722.848 h 116.8 c 1.5,143.726 63,345.862 176,444.242 v 93.78 h -367.4 V 1159.4" /><path
         id="path164"
         style="fill:#231f20;fill-opacity:1;fill-rule:nonzero;stroke:none"
         d="m 12974.8,1011.07 v 1.52 c 50,13.86 75.3,59.2 75.3,109.92 0,96.09 -94.5,149.13 -180.6,149.13 -110.7,0 -182.2,-76.11 -186,-186.03 h 103.8 c -0.8,55.36 28.4,96.1 83,96.1 39.9,0 76.1,-26.16 76.1,-71.5 0,-61.49 -67.7,-70.7 -114.6,-66.86 v -76.87 c 53.1,0 124.5,1.559 124.5,-79.917 0,-50.75 -38.4,-84.559 -87.6,-84.559 -63,0 -92.2,47.664 -94.5,106.07 h -103.8 c -2.3,-123.738 79.2,-196 199.9,-196 105.3,0 199.8,63.809 199.8,176.774 0,59.965 -36.1,109.156 -95.3,122.222" /><path
         id="path166"
         style="fill:#231f20;fill-opacity:1;fill-rule:nonzero;stroke:none"
         d="m 13130.1,722.848 h 120.7 v 118.371 h -120.7 V 722.848" /><path
         id="path168"
         style="fill:#231f20;fill-opacity:1;fill-rule:nonzero;stroke:none"
         d="m 13354.6,1154.03 v -82.24 h 135.3 V 722.848 h 109.1 v 538.022 h -86.8 c -11.5,-82.24 -81.5,-108.36 -157.6,-106.84" /><path
         id="path170"
         style="fill:#231f20;fill-opacity:1;fill-rule:nonzero;stroke:none"
         d="m 14037.3,940.359 c 53,37.657 96.1,82.241 96.1,162.961 0,105.27 -86.1,168.32 -184.5,168.32 -129.2,0 -199.1,-94.54 -195.3,-217.51 h 104.6 c 0,56.84 20.7,123.74 85.3,123.74 46.9,0 80.7,-32.29 80.7,-83.01 -0.8,-66.13 -65.3,-99.176 -113,-131.462 -93,-63.011 -169.1,-116.05 -169.9,-240.55 h 395.1 v 93.773 H 13882 c 39.2,55.324 102.2,86.086 155.3,123.738" /><path
         id="path172"
         style="fill:#231f20;fill-opacity:1;fill-rule:nonzero;stroke:none"
         d="m 14470.9,1011.07 v 1.52 c 49.9,13.86 75.3,59.2 75.3,109.92 0,96.09 -94.6,149.13 -180.6,149.13 -110.7,0 -182.2,-76.11 -186,-186.03 h 103.7 c -0.7,55.36 28.5,96.1 83,96.1 40,0 76.1,-26.16 76.1,-71.5 0,-61.49 -67.6,-70.7 -114.5,-66.86 v -76.87 c 53,0 124.5,1.559 124.5,-79.917 0,-50.75 -38.4,-84.559 -87.6,-84.559 -63,0 -92.3,47.664 -94.5,106.07 h -103.8 c -2.3,-123.738 79.2,-196 199.8,-196 105.3,0 199.9,63.809 199.9,176.774 0,59.965 -36.2,109.156 -95.3,122.222" /><path
         id="path174"
         style="fill:#231f20;fill-opacity:1;fill-rule:nonzero;stroke:none"
         d="m 14892.1,940.359 c 53.1,37.657 96.1,82.241 96.1,162.961 0,105.27 -86,168.32 -184.4,168.32 -129.2,0 -199.1,-94.54 -195.3,-217.51 h 104.5 c 0,56.84 20.8,123.74 85.4,123.74 46.9,0 80.7,-32.29 80.7,-83.01 -0.8,-66.13 -65.3,-99.176 -113,-131.462 -93,-63.011 -169.1,-116.05 -169.9,-240.55 h 395.1 v 93.773 h -254.4 c 39.2,55.324 102.2,86.086 155.2,123.738" /><path
         id="path176"
         style="fill:#231f20;fill-opacity:1;fill-rule:nonzero;stroke:none"
         d="M 13599,1544.14 H 4981.83 v 68.98 H 13599 v -68.98" /></g></g></svg>